<svg xmlns="http://www.w3.org/2000/svg" width="16" height="16" viewBox="0 0 16 16">
    <g fill="none" fill-rule="evenodd">
        <path fill="#FFF" fill-opacity="0" d="M-1 0h16v16H-1z"/>
        <path fill="#777" fill-rule="nonzero" d="M4 15l5.333-5.336L6.667 7H4V1c0-.278.087-.514.262-.708A.826.826 0 0 1 4.9 0l6.022.008L16 5.586V15c0 .278-.088.514-.262.708A.826.826 0 0 1 15.1 16H4.9a.827.827 0 0 1-.638-.292A1.021 1.021 0 0 1 4 15zm6.462-14v5h4.615c-.482-.523-4.146-4.524-4.615-5z"/>
        <path fill="#777" d="M2 7.8h4l2 1.998L4 13.8 0 9.799z"/>
    </g>
</svg>
