<?xml version="1.0" encoding="UTF-8"?>
<svg width="16px" height="16px" viewBox="0 0 16 16" version="1.1" xmlns="http://www.w3.org/2000/svg" xmlns:xlink="http://www.w3.org/1999/xlink">
    <!-- Generator: Sketch 57.1 (83088) - https://sketch.com -->
    <title>Icons/Assetdoc diamond-16-Disabled700</title>
    <desc>Created with Sketch.</desc>
    <g id="Icons/Assetdoc-diamond-16-Disabled700" stroke="none" stroke-width="1" fill="none" fill-rule="evenodd">
        <rect id="Rectangle" fill-opacity="0" fill="#FFFFFF" x="-1" y="0" width="16" height="16"></rect>
        <path d="M4.89996224,-1.77635684e-15 L10.9218949,0.00790599323 L16,5.58563996 L16,15.0000137 C16,15.2779214 15.9124567,15.5139077 15.7375014,15.7084468 C15.5917054,15.8703498 15.4199134,15.964882 15.2220685,15.9918954 L15.1002348,16 L4.89999507,16 C4.65000739,16 4.4375195,15.9027305 4.26249856,15.7084468 C4.11664779,15.5464525 4.03159097,15.3554728 4.00729011,15.1354864 L4,15.0000137 L9.33333333,9.66422526 L6.66666667,7 L4,7 L4,0.999949833 C4,0.722115047 4.08747763,0.485982843 4.26249856,0.291626191 C4.43748666,0.0971600834 4.65000739,-1.77635684e-15 4.89996224,-1.77635684e-15 Z M10.4615385,1 L10.4615385,6 L15.0769231,6 C14.5954235,5.47690297 10.9309827,1.47564907 10.4615385,1 Z" id="Combined-Shape" fill="#777777" fill-rule="nonzero"></path>
        <polygon id="Path-2" fill="#777777" points="2 7.8 6 7.8 8 9.79816895 4 13.8 1.38555833e-13 9.79859619"></polygon>
    </g>
</svg>