<svg xmlns="http://www.w3.org/2000/svg" xmlns:xlink="http://www.w3.org/1999/xlink" width="18" height="18" viewBox="0 0 18 18">
    <defs>
        <path id="a" d="M2.009 5.895a.254.254 0 0 0-.254.254v9.445c0 .14.114.254.254.254h9.445c.14 0 .254-.114.254-.254v-.61a.762.762 0 1 1 1.523 0v.61c0 .982-.795 1.777-1.777 1.777H2.01A1.777 1.777 0 0 1 .23 15.594V6.15c0-.982.796-1.778 1.778-1.778h.558a.762.762 0 0 1 0 1.524H2.01z"/>
    </defs>
    <g fill="none" fill-rule="evenodd">
        <path fill="none" d="M0 0h18v18H0z"/>
        <path fill="#4E5C6E" d="M15.826 0c.981 0 1.777.796 1.777 1.777v9.446c0 .981-.796 1.777-1.777 1.777H6.38a1.777 1.777 0 0 1-1.777-1.777V1.777C4.603.796 5.399 0 6.38 0h9.446zm.253 11.223V1.777a.254.254 0 0 0-.253-.254H6.38a.254.254 0 0 0-.254.254v9.446c0 .14.114.254.254.254h9.446c.14 0 .253-.114.253-.254z"/>
        <use fill="#4E5C6E" xlink:href="#a"/>
    </g>
</svg>
