<?xml version="1.0" encoding="UTF-8"?>
<svg width="12px" height="12px" viewBox="0 0 12 12" version="1.1" xmlns="http://www.w3.org/2000/svg" xmlns:xlink="http://www.w3.org/1999/xlink">
    <!-- Generator: sketchtool 53.2 (72643) - https://sketchapp.com -->
    <title>06BBD944-0283-4F8B-A9F5-640E607268F7</title>
    <desc>Created with sketchtool.</desc>
    <defs>
        <path d="M1.33918209,3.92990719 C1.24569576,3.92990719 1.16991113,4.00569446 1.16991113,4.09918276 L1.16991113,10.396057 C1.16991113,10.4895433 1.24569576,10.5653279 1.33918209,10.5653279 L7.63605631,10.5653279 C7.72954461,10.5653279 7.80533188,10.4895433 7.80533188,10.396057 L7.80533188,9.98980745 C7.80533188,9.70934979 8.03268711,9.48199456 8.31313885,9.48199456 C8.59359717,9.48199456 8.8209524,9.70934979 8.8209524,9.98980745 L8.8209524,10.396057 C8.8209524,11.0504573 8.29046125,11.5809533 7.63605631,11.5809533 L1.33918209,11.5809533 C0.684781751,11.5809533 0.154285733,11.0504573 0.154285733,10.396057 L0.154285733,4.09918276 C0.154285733,3.44477781 0.684781751,2.91428667 1.33918209,2.91428667 L1.71157782,2.91428667 C1.99203482,2.91428667 2.21939005,3.1416419 2.21939005,3.42210022 C2.21939005,3.70255196 1.99203482,3.92990719 1.71157782,3.92990719 L1.33918209,3.92990719 Z" id="path-1"></path>
    </defs>
    <g id="Symbols" stroke="none" stroke-width="1" fill="none" fill-rule="evenodd">
        <g id="Dropdowns/Account-default" transform="translate(-218.000000, -80.000000)">
            <g id="Icons/Copy-12-Basic700" transform="translate(218.000000, 80.000000)">
                <polygon id="ico-zone" fill-opacity="0" fill="#FFFFFF" fill-rule="evenodd" points="0 0 12 0 12 12 0 12"></polygon>
                <path d="M10.5503421,1.8189894e-12 C11.2047403,1.8189894e-12 11.735238,0.530497665 11.735238,1.18489595 L11.735238,7.48177072 C11.735238,8.13617032 11.2047403,8.66666667 10.5503421,8.66666667 L4.25346728,8.66666667 C3.59906768,8.66666667 3.06857133,8.13617032 3.06857133,7.48177072 L3.06857133,1.18489595 C3.06857133,0.530497665 3.59906768,1.8189894e-12 4.25346728,1.8189894e-12 L10.5503421,1.8189894e-12 Z M10.719611,7.48177072 L10.719611,1.18489595 C10.719611,1.09140766 10.6438303,1.01562698 10.5503421,1.01562698 L4.25346728,1.01562698 C4.15998163,1.01562698 4.08419634,1.09140766 4.08419634,1.18489595 L4.08419634,7.48177072 C4.08419634,7.57525637 4.15998163,7.65104166 4.25346728,7.65104166 L10.5503421,7.65104166 C10.6438303,7.65104166 10.719611,7.57525637 10.719611,7.48177072 Z" id="Clip-5" fill="#4E5C6E" fill-rule="evenodd"></path>
                <mask id="mask-2" fill="white">
                    <use xlink:href="#path-1"></use>
                </mask>
                <use id="Clip-8" fill="#4E5C6E" fill-rule="evenodd" xlink:href="#path-1"></use>
            </g>
        </g>
    </g>
</svg>