<svg xmlns="http://www.w3.org/2000/svg" xmlns:xlink="http://www.w3.org/1999/xlink" width="12" height="12" viewBox="0 0 12 12">
    <defs>
        <path id="a" d="M1.34 3.93a.17.17 0 0 0-.17.17v6.296c0 .094.076.17.17.17h6.296a.17.17 0 0 0 .17-.17V9.99a.508.508 0 1 1 1.015 0v.406c0 .654-.53 1.185-1.185 1.185H1.34c-.654 0-1.185-.53-1.185-1.185V4.1c0-.654.53-1.185 1.185-1.185h.373a.508.508 0 0 1 0 1.016h-.373z"/>
    </defs>
    <g fill="none" fill-rule="evenodd">
        <path fill="#FFF" fill-opacity="0" d="M0 0h12v12H0z"/>
        <path fill="#777" d="M10.55 0c.655 0 1.185.53 1.185 1.185v6.297c0 .654-.53 1.185-1.185 1.185H4.253c-.654 0-1.184-.53-1.184-1.185V1.185C3.069.53 3.599 0 4.253 0h6.297zm.17 7.482V1.185a.17.17 0 0 0-.17-.17H4.253a.17.17 0 0 0-.169.17v6.297c0 .093.076.169.17.169h6.296a.17.17 0 0 0 .17-.17z"/>
        <use fill="#777" xlink:href="#a"/>
    </g>
</svg>
