<svg xmlns="http://www.w3.org/2000/svg" width="16" height="16" viewBox="0 0 16 16">
    <g fill="none" fill-rule="evenodd">
        <path fill="none" d="M0 0h16v16H0z"/>
        <path fill="#7F8FA4" fill-rule="nonzero" d="M4 15h2.231a3.333 3.333 0 0 0 1.85-.544c.546-.358.969-.863 1.269-1.514.3-.651.45-1.395.45-2.232v-.414c0-.837-.153-1.583-.458-2.24-.306-.658-.73-1.165-1.275-1.521A3.305 3.305 0 0 0 6.215 6H4V1c0-.278.087-.514.262-.708A.826.826 0 0 1 4.9 0l6.022.008L16 5.586V15c0 .278-.088.514-.262.708A.826.826 0 0 1 15.1 16H4.9a.827.827 0 0 1-.638-.292A1.021 1.021 0 0 1 4 15zm7-14v5h4c-.417-.523-3.593-4.524-4-5zM2 11.3h3V9.8H2V7h3.908a2.57 2.57 0 0 1 1.44.416c.424.277.755.671.992 1.183.238.51.357 1.092.357 1.742v.322c0 .651-.117 1.23-.35 1.736a2.742 2.742 0 0 1-.988 1.178c-.425.279-.904.42-1.438.423H2v-2.7z"/>
    </g>
</svg>
