<?xml version="1.0" encoding="UTF-8"?>
<svg width="16px" height="16px" viewBox="0 0 16 16" version="1.1" xmlns="http://www.w3.org/2000/svg" xmlns:xlink="http://www.w3.org/1999/xlink">
    <!-- Generator: Sketch 54.1 (76490) - https://sketchapp.com -->
    <title>Icons/Dapps-16-White</title>
    <desc>Created with Sketch.</desc>
    <g id="Icons/Dapps-16-White" stroke="none" stroke-width="1" fill="none" fill-rule="evenodd">
        <rect id="Rectangle" fill-opacity="0" fill="#FFFFFF" x="0" y="0" width="16" height="16"></rect>
        <path d="M4,15 L6.23126685,15 C6.91770334,14.9958791 7.53404938,14.8145622 8.08032345,14.456044 C8.62659752,14.0975257 9.04977388,13.592723 9.34986523,12.9416209 C9.64995658,12.2905187 9.8,11.5467075 9.8,10.7101648 L9.8,10.2960165 C9.8,9.45947384 9.64726119,8.71257197 9.34177898,8.05528846 C9.03629677,7.39800496 8.61132348,6.89114189 8.06684636,6.53468407 C7.52236925,6.17822624 6.90512474,6 6.21509434,6 L4,6 L4,0.999949833 C4,0.722115047 4.08747763,0.485982843 4.26249856,0.291626191 C4.43748666,0.0971600834 4.65000739,0 4.89996224,0 L10.9218949,0.00790599323 L16,5.58563996 L16,15.0000137 C16,15.2779214 15.9124567,15.5139077 15.7375014,15.7084468 C15.5625462,15.9027305 15.3501568,16 15.1002348,16 L4.89999507,16 C4.65000739,16 4.4375195,15.9027305 4.26249856,15.7084468 C4.08747763,15.5140536 4,15.2779214 4,15.0000137 Z M11,1 L11,6 L15,6 C14.5827004,5.47690297 11.4068516,1.47564907 11,1 Z M2,11.3 L5,11.3 L5,9.8 L2,9.8 L2,7 L5.90840671,7 C6.44509702,7 6.92517608,7.13862041 7.34865828,7.41586538 C7.77214048,7.69311036 8.10267526,8.08733719 8.34027254,8.59855769 C8.57786981,9.1097782 8.69666667,9.69070187 8.69666667,10.3413462 L8.69666667,10.6634615 C8.69666667,11.3141058 8.57996623,11.8926257 8.34656184,12.3990385 C8.11315746,12.9054512 7.78402029,13.2980755 7.35914046,13.5769231 C6.93426063,13.8557706 6.45488038,13.9967949 5.92098532,14 L2,14 L2,11.3 Z" id="Combined-Shape" fill="#FFFFFF" fill-rule="nonzero"></path>
    </g>
</svg>