<svg xmlns="http://www.w3.org/2000/svg" width="12" height="12" viewBox="0 0 12 12">
    <g fill="none" fill-rule="nonzero">
        <path fill="#FFF" fill-opacity="0" d="M0 0h12v12H0z"/>
        <path fill="#999" d="M7.46 0c.454 0 .81.357.81.81v1.055h2.595c.276 0 .486.21.486.486s-.21.487-.486.487H10.2l-.746 8.432a.836.836 0 0 1-.81.73H2.74a.823.823 0 0 1-.811-.73l-.746-8.432H.486A.478.478 0 0 1 0 2.35c0-.275.21-.486.486-.486h2.595V.81c0-.454.357-.811.81-.811zm-.163.973H4.054v.892h3.243V.973z"/>
    </g>
</svg>
