<?xml version="1.0" encoding="UTF-8"?>
<svg width="12px" height="12px" viewBox="0 0 12 12" version="1.1" xmlns="http://www.w3.org/2000/svg" xmlns:xlink="http://www.w3.org/1999/xlink">
    <!-- Generator: Sketch 57.1 (83088) - https://sketch.com -->
    <title>Icons/Delete-12-Disabled600</title>
    <desc>Created with Sketch.</desc>
    <g id="Icons/Delete-12-Disabled600" stroke="none" stroke-width="1" fill="none" fill-rule="evenodd">
        <rect id="ico-zone" fill-opacity="0" fill="#FFFFFF" fill-rule="nonzero" x="0" y="0" width="12" height="12"></rect>
        <path d="M7.45947875,0 C7.91351536,0 8.27027614,0.356760783 8.27027614,0.810797389 L8.27027614,0.810797389 L8.27027614,1.86487745 L10.8648774,1.86487745 C11.1405337,1.86487745 11.3512876,2.0757245 11.3512876,2.35138071 C11.3512876,2.62703693 11.1405026,2.83785294 10.8648154,2.83785294 L10.8648154,2.83785294 L10.1999628,2.83785294 L9.45400557,11.2702761 C9.40536766,11.6756748 9.04860687,12 8.64320818,12 L8.64320818,12 L2.74051504,12 C2.31891405,12 1.97835556,11.6756748 1.92971765,11.2702761 L1.92971765,11.2702761 L1.18376046,2.83779086 L0.486472225,2.83779086 C0.210816012,2.83779086 -2.55795385e-13,2.62697485 -2.55795385e-13,2.35131863 C-2.55795385e-13,2.07566242 0.210784973,1.86484641 0.486472225,1.86484641 L0.486472225,1.86484641 L3.08110457,1.86484641 L3.08110457,0.810797389 C3.08110457,0.356760783 3.43783431,0 3.89190196,0 L3.89190196,0 Z M7.29730065,0.97297549 L4.05404902,0.97297549 L4.05404902,1.86487745 L7.29730065,1.86487745 L7.29730065,0.97297549 Z" id="Combined-Shape" fill="#999999" fill-rule="nonzero"></path>
    </g>
</svg>