<?xml version="1.0" encoding="UTF-8"?>
<svg width="13px" height="12px" viewBox="0 0 13 12" version="1.1" xmlns="http://www.w3.org/2000/svg" xmlns:xlink="http://www.w3.org/1999/xlink">
    <!-- Generator: sketchtool 54.1 (76490) - https://sketchapp.com -->
    <title>52DEFEF5-3347-4A3A-83ED-0318148412DF</title>
    <desc>Created with sketchtool.</desc>
    <g id="UI-Kit" stroke="none" stroke-width="1" fill="none" fill-rule="evenodd">
        <g transform="translate(-47.000000, -1088.000000)" fill-rule="nonzero" id="Icons-set">
            <g transform="translate(45.000000, 947.000000)">
                <g id="12" transform="translate(1.000000, 92.000000)">
                    <g id="Icons/Edit-12-Basic600" transform="translate(1.000000, 49.000000)">
                        <rect id="ico-zone" fill-opacity="0" fill="#FFFFFF" x="0" y="0" width="12" height="12"></rect>
                        <path d="M7.49843967,2.0026454 L9.95146583,4.45564876 L3.74217924,10.6649354 L1.29054387,8.21193199 L7.49843967,2.0026454 Z M11.8128382,1.41103724 L10.7188829,0.31708196 C10.296107,-0.105693987 9.60960624,-0.105693987 9.1853939,0.31708196 L8.13749414,1.36498172 L10.5905203,3.81800788 L11.8128382,2.59568996 C12.1407444,2.26776101 12.1407444,1.73894338 11.8128382,1.41103724 Z M0.00682619301,11.6598257 C-0.0378157367,11.8607372 0.143579152,12.0407641 0.344513436,11.9919042 L3.07799944,11.329138 L0.626364067,8.8761346 L0.00682619301,11.6598257 Z" id="Shape" fill="#828DA4"></path>
                    </g>
                </g>
            </g>
        </g>
    </g>
</svg>