<svg width="58" height="57" viewBox="0 0 58 57" fill="none" xmlns="http://www.w3.org/2000/svg">
<path fill-rule="evenodd" clip-rule="evenodd" d="M43.1345 15.5194C43.525 15.1288 43.525 14.4957 43.1345 14.1052C42.7439 13.7146 42.1108 13.7146 41.7202 14.1052L28.9552 26.8702L16.2643 14.1792C15.8738 13.7887 15.2406 13.7887 14.8501 14.1792C14.4596 14.5697 14.4596 15.2029 14.8501 15.5934L27.541 28.2844L14.8502 40.9752C14.4597 41.3657 14.4597 41.9989 14.8502 42.3894C15.2407 42.7799 15.8739 42.7799 16.2644 42.3894L28.9552 29.6986L41.7201 42.4635C42.1107 42.854 42.7438 42.854 43.1343 42.4635C43.5249 42.073 43.5249 41.4398 43.1343 41.0493L30.3694 28.2844L43.1345 15.5194Z" fill="#EF7362"/>
</svg>
