<svg xmlns="http://www.w3.org/2000/svg" width="16" height="16" viewBox="0 0 16 16">
    <g fill="none" fill-rule="evenodd">
        <path fill="#FFF" fill-opacity="0" d="M0 0h16v16H0z"/>
        <path fill="#999" fill-rule="nonzero" d="M15.365 4.046a2.124 2.124 0 0 0-1.519-.605H7.385A409.71 409.71 0 0 1 5.664 2L.94 2.007c-.59 0-.941.579-.941 1.14v8.8c0 .562.212 1.045.635 1.448.423.403.93.605 1.519.605h11.692c.59 0 1.096-.202 1.52-.605.423-.403.634-.886.634-1.448V5.494c0-.562-.211-1.045-.635-1.448z"/>
    </g>
</svg>
