<svg width="38" height="38" viewBox="0 0 38 38" fill="none" xmlns="http://www.w3.org/2000/svg">
<path fill-rule="evenodd" clip-rule="evenodd" d="M36 19C36 28.3888 28.3888 36 19 36C9.61116 36 2 28.3888 2 19C2 9.61116 9.61116 2 19 2C28.3888 2 36 9.61116 36 19ZM38 19C38 29.4934 29.4934 38 19 38C8.50659 38 0 29.4934 0 19C0 8.50659 8.50659 0 19 0C29.4934 0 38 8.50659 38 19ZM20.6131 26.8735V14.992L20.2916 14.6458C19.6487 14.6705 18.9481 14.7324 18.1898 14.8313C17.4398 14.9302 16.7433 15.0827 16.1004 15.2887V16.3025L17.8931 16.5251C18.1156 16.5498 18.2846 16.6322 18.4 16.7724C18.5154 16.9042 18.5731 17.0856 18.5731 17.3164V26.8858C18.5731 27.1166 18.5113 27.2979 18.3876 27.4298C18.2722 27.5617 18.0992 27.6441 17.8684 27.6771L16.2858 27.912V29H22.9004V27.912L21.3178 27.6771C21.087 27.6441 20.9098 27.5617 20.7862 27.4298C20.6708 27.2897 20.6131 27.1042 20.6131 26.8735ZM20.4276 12.0124C20.7408 11.7074 20.8975 11.3159 20.8975 10.8378C20.8975 10.368 20.7408 9.98061 20.4276 9.67564C20.1227 9.36242 19.7353 9.20582 19.2655 9.20582C18.7874 9.20582 18.3959 9.36242 18.0909 9.67564C17.7859 9.98061 17.6335 10.368 17.6335 10.8378C17.6335 11.3159 17.7859 11.7074 18.0909 12.0124C18.3959 12.3173 18.7874 12.4698 19.2655 12.4698C19.7353 12.4698 20.1227 12.3173 20.4276 12.0124Z" fill="#5A8AFF"/>
</svg>
