<svg xmlns="http://www.w3.org/2000/svg" width="32" height="32" viewBox="0 0 32 32">
    <g fill="none" fill-rule="evenodd">
        <path fill="#D8D8D8" fill-opacity="0" d="M-3-3h32v32H-3z"/>
        <circle cx="16" cy="16" r="16" fill="#7F8FA4"/>
        <path fill="#FFF" fill-rule="nonzero" d="M8.924 10.393a9.008 9.008 0 0 1 7.028-3.352c4.975 0 9.009 4.011 9.009 8.959 0 4.948-4.034 8.959-9.01 8.959a9.004 9.004 0 0 1-7.026-3.352.52.52 0 1 0-.808.655A10.043 10.043 0 0 0 15.952 26C21.502 26 26 21.523 26 16S21.501 6 15.952 6c-3.057 0-5.922 1.37-7.836 3.738a.521.521 0 0 0 .808.655z"/>
        <path fill="#FFF" fill-rule="nonzero" d="M16.366 16.505H6.385c-.32 0-.58-.223-.58-.5 0-.276.26-.5.58-.5h9.987l-2.208-2.584c-.097-.113-.144-.536.05-.763.195-.228.556-.173.653-.06l2.957 3.461a.428.428 0 0 1 .053.063l.021.024a.5.5 0 0 1 .081.255c.025.19-.015.38-.076.452L14.872 19.9c-.097.113-.46.17-.655-.057-.194-.228-.146-.653-.049-.767l2.198-2.572z"/>
    </g>
</svg>
