<svg xmlns="http://www.w3.org/2000/svg" width="146" height="22" viewBox="0 0 146 22">
    <g fill="none" fill-rule="evenodd">
        <path fill="none" d="M0 1h146v20H0z"/>
        <path fill="#000" fill-rule="nonzero" d="M110.214 14.16h-4.805v6.621H104V4.874h5.374c1.764 0 3.143.412 4.135 1.235.992.823 1.488 1.973 1.488 3.452 0 1.02-.31 1.92-.932 2.699-.62.779-1.454 1.318-2.499 1.617l4.135 6.762v.142h-1.488l-3.999-6.62zm-4.805-1.147h4.283c1.174 0 2.116-.32 2.828-.96.712-.642 1.068-1.472 1.068-2.492 0-1.122-.37-1.992-1.113-2.611-.742-.62-1.784-.929-3.124-.929h-3.942v6.992zm14.598 7.768h-1.363V8.961h1.363v11.82zm-1.602-15.24c0-.248.084-.458.25-.629.167-.17.394-.256.682-.256.288 0 .517.085.687.256.17.171.256.38.256.628a.838.838 0 0 1-.256.623c-.17.168-.4.252-.687.252-.288 0-.515-.084-.682-.252a.848.848 0 0 1-.25-.623zm4.749 9.22c0-1.835.426-3.297 1.278-4.386.852-1.089 2.009-1.633 3.47-1.633 1.66 0 2.924.63 3.795 1.89V4h1.352v16.781h-1.272l-.057-1.573c-.871 1.195-2.151 1.792-3.84 1.792-1.416 0-2.558-.548-3.425-1.644-.868-1.096-1.301-2.577-1.301-4.441v-.153zm1.375.23c0 1.508.314 2.697.942 3.567.63.87 1.515 1.306 2.659 1.306 1.674 0 2.863-.71 3.567-2.13v-5.55c-.704-1.538-1.886-2.306-3.544-2.306-1.144 0-2.034.431-2.67 1.295-.636.863-.954 2.135-.954 3.818zM141.388 21c-1.046 0-1.99-.248-2.835-.743a5.143 5.143 0 0 1-1.97-2.07c-.47-.885-.705-1.878-.705-2.977v-.47c0-1.137.229-2.16.687-3.07.458-.91 1.096-1.626 1.914-2.147a4.857 4.857 0 0 1 2.659-.781c1.492 0 2.675.49 3.55 1.47.875.979 1.312 2.317 1.312 4.014v.732h-8.77v.252c0 1.34.4 2.456 1.198 3.348.8.892 1.805 1.339 3.016 1.339.727 0 1.37-.128 1.926-.383.557-.255 1.062-.663 1.517-1.224l.852.623c-1 1.391-2.45 2.087-4.351 2.087zm-.25-11.144c-1.023 0-1.884.36-2.585 1.082-.7.72-1.126 1.69-1.278 2.906h7.373v-.142c-.038-1.136-.375-2.061-1.011-2.775-.636-.714-1.47-1.071-2.5-1.071z"/>
        <path fill="#1F5AF6" d="M93.74.935l5.251 5.167-5.269 5.185-5.25-5.167z"/>
        <g fill="#000" fill-rule="nonzero">
            <path d="M23.094 5.808H20.18l-.305.27-2.989 10.369h-.019l-3.35-10.37-.305-.27h-3.046l-.305.27L6.53 16.39l-.057-.038-.019-.02L3.465 6.077l-.305-.27H.19l-.19.27L4.664 20.68l.324.289H7.92l.324-.289 3.331-10.446h.077l3.35 10.446.324.289h2.97l.324-.289 4.664-14.602zM56.05 5.808h-2.933l-.323.27L48.7 16.87l-.038.02-4.055-10.813-.324-.27h-2.989l-.19.27 5.845 14.602.343.289h2.703l.343-.289L56.24 6.077zM71.166 14.196l.285-.27v-.442c0-2.366-.666-4.406-1.98-5.83C68.158 6.232 66.387 5.5 64.217 5.5c-2.094 0-3.846.789-5.198 2.328-1.352 1.539-2.018 3.405-2.018 5.521 0 2.251.705 4.137 2.094 5.618 1.39 1.481 3.218 2.232 5.426 2.232 1.6 0 2.97-.385 4.075-1.174 1.104-.77 2.265-2.04 2.665-3.77l-.21-.29H68.31l-.38.29c-.686 1.385-1.733 2.039-3.466 2.039-1.123 0-2.132-.404-2.97-1.193-.8-.75-1.256-1.655-1.37-2.944l11.042.039zm-10.852-2.694c.476-1.789 1.96-3.116 3.903-3.116 2.57 0 3.636 1.847 3.94 3.116h-7.843zM36.344 5.808l-.285.288v1.501l-.057.058c-.381-.5-.895-.943-1.504-1.308-.134-.077-.286-.154-.438-.231-.819-.404-1.752-.597-2.76-.597-1.886 0-3.542.77-4.913 2.27-1.37 1.501-2.056 3.386-2.056 5.599 0 2.212.686 4.098 2.056 5.598 1.371 1.5 3.027 2.27 4.912 2.27 1.01 0 1.923-.192 2.742-.596.152-.077.323-.154.476-.25.59-.366 1.085-.77 1.466-1.25.019-.02.076.019.095 0v1.558l.285.288h2.495l.285-.288V6.078l-.285-.29h-2.514v.02zm-1.542 11.197c-.837.904-1.846 1.346-3.065 1.346-1.18 0-2.056-.442-2.913-1.366-.857-.904-1.275-2.116-1.275-3.636 0-1.5.438-2.712 1.275-3.636.857-.904 1.714-1.366 2.913-1.366 1.2 0 2.209.443 3.065 1.347.552.596.914 1.308 1.124 2.174v2.924c-.19.905-.572 1.636-1.124 2.213zM81.732 12.195s-1.637-.346-2.989-.654c-1.237-.289-1.866-.654-1.866-1.54 0-.942.895-1.73 2.818-1.73 1.885 0 2.932.846 2.932 1.596l.324.289h2.741l.21-.27c0-1.981-1.695-4.348-6.13-4.348-4.627 0-6.074 2.752-6.074 4.522 0 1.48.533 3.232 4.074 4.059l3.046.693c1.542.346 2.19.885 2.19 1.789 0 .827-.819 1.827-2.951 1.827-1.98 0-3.18-.962-3.237-2.097l-.342-.288h-2.8l-.209.288c.248 2.54 2.114 4.925 6.569 4.925 5.045 0 6.073-3.116 6.073-4.751 0-2.194-1.238-3.617-4.379-4.31z"/>
        </g>
    </g>
</svg>
