<svg xmlns="http://www.w3.org/2000/svg" width="24" height="24" viewBox="0 0 24 24">
    <g fill="none" fill-rule="evenodd">
        <path fill="none" d="M0 0h24v24H0z"/>
        <path fill="#7F8FA4" d="M24 13.03l-2.144.614a1.55 1.55 0 0 0-1.057 1.045 9.16 9.16 0 0 1-.674 1.635 1.549 1.549 0 0 0 .01 1.484l1.076 1.94-1.463 1.463-1.94-1.076a1.547 1.547 0 0 0-1.484-.01 9.106 9.106 0 0 1-1.635.674c-.506.151-.9.55-1.045 1.057L13.029 24h-2.058l-.615-2.145a1.55 1.55 0 0 0-1.046-1.057 9.103 9.103 0 0 1-1.634-.673 1.573 1.573 0 0 0-.735-.184c-.262 0-.52.066-.749.194l-1.94 1.076-1.463-1.463 1.076-1.94c.255-.46.26-1.018.01-1.482a9.171 9.171 0 0 1-.673-1.635c-.151-.507-.55-.901-1.058-1.047L0 13.03v-2.058l2.144-.615A1.55 1.55 0 0 0 3.2 9.311a9.137 9.137 0 0 1 .674-1.634 1.547 1.547 0 0 0-.01-1.484L2.79 4.252l1.463-1.463 1.94 1.076a1.548 1.548 0 0 0 1.484.01 9.142 9.142 0 0 1 1.634-.674c.506-.151.9-.55 1.046-1.057L10.971 0h2.058l.615 2.144c.145.507.539.905 1.044 1.057a9.142 9.142 0 0 1 1.635.674 1.546 1.546 0 0 0 1.485-.01l1.94-1.076 1.463 1.463-1.076 1.94a1.549 1.549 0 0 0-.01 1.482c.276.522.502 1.07.674 1.636.15.506.55.9 1.057 1.046l2.144.615v2.058zM12 16a4 4 0 1 0 0-8 4 4 0 0 0 0 8z"/>
    </g>
</svg>
