<svg xmlns="http://www.w3.org/2000/svg" width="18" height="18" viewBox="0 0 18 18">
    <g fill="none" fill-rule="evenodd">
        <path fill="#FFF" fill-opacity="0" d="M1 0h18v18H1z"/>
        <path fill="#4E5C6E" d="M13.23 10.357v5.236c0 .981-.796 1.777-1.777 1.777H2.007A1.777 1.777 0 0 1 .23 15.593V6.147c0-.981.796-1.777 1.777-1.777h3.045a7.23 7.23 0 0 0-1.294 1.523h-1.75a.254.254 0 0 0-.255.254v9.446c0 .14.114.254.254.254h9.446c.14 0 .254-.114.254-.254V11.53l1.523-1.174z"/>
        <path fill="#4E5C6E" fill-rule="nonzero" d="M11.355 0v2.219C8.808 3.054 5.179 5.29 4 10c2.946-3.34 7.112-2.976 7.355-2.96v2.218l6.718-4.722L11.355 0z"/>
    </g>
</svg>
