<?xml version="1.0" encoding="UTF-8"?>
<svg width="18px" height="18px" viewBox="0 0 18 18" version="1.1" xmlns="http://www.w3.org/2000/svg" xmlns:xlink="http://www.w3.org/1999/xlink">
    <!-- Generator: Sketch 57.1 (83088) - https://sketch.com -->
    <title>Icons/Share-18-Disabled700</title>
    <desc>Created with Sketch.</desc>
    <g id="Icons/Share-18-Disabled700" stroke="none" stroke-width="1" fill="none" fill-rule="evenodd">
        <polygon id="ico-zone" fill-opacity="0" fill="#FFFFFF" points="1 0 19 0 19 18 1 18"></polygon>
        <path d="M5.05329744,4.36916361 C4.58332098,4.785585 4.14840595,5.2847252 3.75884967,5.8919433 L2.00734392,5.89344047 C1.86711544,5.89344047 1.75343751,6.00711149 1.75343751,6.14734392 L1.75343751,15.5926561 C1.75343751,15.7328846 1.86711544,15.8465625 2.00734392,15.8465625 L11.4526561,15.8465625 C11.5928885,15.8465625 11.7065595,15.7328846 11.7065595,15.5926561 L11.706,11.531 L13.23,10.356 L13.23,15.5926561 C13.23,16.5742555 12.4342535,17.37 11.4526561,17.37 L2.00734392,17.37 C1.02574452,17.37 0.23,16.5742555 0.23,15.5926561 L0.23,6.14734392 C0.23,5.1657465 1.02574452,4.37 2.00734392,4.37 L5.05329744,4.36916361 Z" id="Combined-Shape" fill="#777777"></path>
        <path d="M11.3548387,0 L11.3548387,2.21874834 C8.80824516,3.05444771 5.179,5.29124603 4,10 C6.94611613,6.66047 11.1116645,7.02430723 11.3548387,7.03905722 L11.3548387,9.25782556 L18.0734694,4.5360215 L11.3548387,0 Z" id="Shape" fill="#777777" fill-rule="nonzero"></path>
    </g>
</svg>