<svg xmlns="http://www.w3.org/2000/svg" width="24" height="24" viewBox="0 0 24 24">
    <g fill="none" fill-rule="evenodd">
        <path fill="#D8D8D8" fill-opacity="0" d="M-1 1h18v18H-1z"/>
        <rect width="24" height="24" fill="#777" rx="4"/>
        <path fill="#2D2D2D" fill-rule="nonzero" d="M10.768 12.217l-3.337 5.341c.277-1.335.633-6.067.326-7.534-.095-.449.151-.93.383-1.067 2.268-1.408 3.446-2.249 4.387-3.92.1-.159.4-.223.9-.191l3.887 2.428c.244.462.316.761.214.9-1.242 1.707-1.48 3.14-1.592 5.67-.01.24-.315.704-.78.829-1.678.456-3.872 2.171-6.698 3.576l3.359-5.376 2.242-.629-.583-3.194-3.126.877.418 2.29z"/>
    </g>
</svg>
