<svg xmlns="http://www.w3.org/2000/svg" width="18" height="18" viewBox="0 0 18 18">
    <g fill="none" fill-rule="evenodd">
        <path fill="#D8D8D8" fill-opacity="0" d="M-1 1h18v18H-1z"/>
        <g fill="#1F5AF6">
            <path fill-rule="nonzero" d="M5.37 9.412l-3.934 6.295c.28-1.602.485-7.314.022-9.107-.143-.548.143-1.118.428-1.271C4.674 3.74 6.116 2.784 7.217.809 7.335.623 7.71.56 8.342.624l5.028 3.142c.332.571.438.938.316 1.1-1.478 2.004-1.704 3.725-1.714 6.784 0 .291-.36.836-.942.963-2.092.466-4.771 2.43-8.263 3.984l3.96-6.336 2.794-.645-.9-3.898-3.897.9.645 2.795zM16.167 16.248h-9.03a.493.493 0 0 0-.485.5c0 .276.217.5.485.5h9.03a.493.493 0 0 0 .485-.5c0-.276-.217-.5-.485-.5z"/>
            <path d="M5.924 7.366l1.948-.45.45 1.95-1.948.45z"/>
        </g>
    </g>
</svg>
