<svg xmlns="http://www.w3.org/2000/svg" width="24" height="24" viewBox="0 0 24 24">
    <g fill="none" fill-rule="evenodd">
        <path fill="#D8D8D8" fill-opacity="0" d="M-1.333 1.333h24v24h-24z"/>
        <rect width="24" height="24" fill="#DAE1E9" rx="4"/>
        <path fill="#7F8FA4" fill-rule="nonzero" d="M10.973 12.248l-3.814 6.104c.316-1.525.724-6.934.373-8.61-.108-.513.173-1.063.438-1.22 2.591-1.609 3.938-2.57 5.014-4.479.114-.182.456-.255 1.028-.22L18.454 6.6c.28.527.36.87.244 1.028-1.419 1.952-1.691 3.588-1.818 6.48-.012.276-.36.805-.893.947-1.916.522-4.425 2.483-7.655 4.088l3.84-6.145 2.562-.718-.666-3.65-3.572 1.002.477 2.617z"/>
    </g>
</svg>
