<svg width="38" height="38" viewBox="0 0 38 38" fill="none" xmlns="http://www.w3.org/2000/svg">
<path d="M32.435 5.56492C28.8464 1.97637 24.0751 0 19 0C13.9248 0 9.15347 1.97637 5.56492 5.56492C1.9763 9.15355 0 13.9249 0 19C0 24.0751 1.9763 28.8464 5.56492 32.435C9.15355 36.0236 13.9248 38 19 38C24.0751 38 28.8464 36.0236 32.435 32.435C36.0236 28.8464 38 24.0751 38 19C38 13.9249 36.0236 9.15362 32.435 5.56492ZM19 35.7734C9.75108 35.7734 2.22656 28.2489 2.22656 19C2.22656 9.75108 9.75108 2.22656 19 2.22656C28.2489 2.22656 35.7734 9.75108 35.7734 19C35.7734 28.2489 28.2489 35.7734 19 35.7734Z" fill="#7ECF81"/>
<path d="M28.0775 12.9036C27.6428 12.469 26.9379 12.469 26.5032 12.9037L16.6722 22.7346L11.4972 17.5596C11.0625 17.1249 10.3575 17.1249 9.92276 17.5596C9.48799 17.9943 9.48799 18.6992 9.92276 19.134L15.885 25.0962C16.1024 25.3136 16.3873 25.4222 16.6721 25.4222C16.957 25.4222 17.242 25.3135 17.4593 25.0962L28.0775 14.478C28.5123 14.0433 28.5123 13.3384 28.0775 12.9036Z" fill="#7ECF81"/>
</svg>
