<svg width="41" height="36" viewBox="0 0 41 36" fill="none" xmlns="http://www.w3.org/2000/svg">
<path fill-rule="evenodd" clip-rule="evenodd" d="M39.9855 30.75L23.098 1.5C21.9433 -0.499995 19.0565 -0.500005 17.9018 1.5L1.01431 30.75C-0.140389 32.75 1.30298 35.25 3.61238 35.25H37.3874C39.6968 35.25 41.1402 32.75 39.9855 30.75ZM19.6339 2.5C20.0188 1.83333 20.981 1.83333 21.3659 2.5L38.2534 31.75C38.6383 32.4167 38.1572 33.25 37.3874 33.25H3.61238C2.84258 33.25 2.36146 32.4167 2.74636 31.75L19.6339 2.5ZM19.2795 10.214V10.6436L19.8466 22.2392C19.8636 22.5874 20.1509 22.861 20.4996 22.861C20.8485 22.861 21.1359 22.587 21.1526 22.2385L21.7075 10.6436V10.214C21.7075 9.54352 21.164 9 20.4935 9C19.8231 9 19.2795 9.54352 19.2795 10.214ZM21.5804 27.6384C21.8601 27.39 21.9999 27.0796 21.9999 26.707C21.9999 26.3272 21.8601 26.0167 21.5804 25.7757C21.3007 25.5346 20.9406 25.4141 20.4999 25.4141C20.0592 25.4141 19.699 25.5346 19.4194 25.7757C19.1397 26.0167 18.9999 26.3272 18.9999 26.707C18.9999 27.0796 19.1397 27.39 19.4194 27.6384C19.699 27.8795 20.0592 28 20.4999 28C20.9406 28 21.3007 27.8795 21.5804 27.6384Z" fill="#FFD56A"/>
</svg>
