<svg xmlns="http://www.w3.org/2000/svg" width="110" height="24" viewBox="0 0 110 24">
    <g fill="none" fill-rule="evenodd">
        <path fill="#05F" fill-opacity="0" d="M0 0h110v24H0z"/>
        <path fill="#FFF" fill-rule="nonzero" d="M84.848 19h-1.116V6.965h1.116V19zm5.798-12.035c3.849 0 6.548 1.394 6.548 6.01 0 4.63-2.7 6.025-6.548 6.025h-2.932V6.965h2.932zm-.033 1.013H88.83v10.01h1.783c2.749 0 5.398-.565 5.398-5.014s-2.65-4.996-5.398-4.996zm8.68-1.013h7.747v1.03h-6.63v4.249h6.23v1.046h-6.23v4.68h6.63V19h-7.747V6.965z"/>
        <path fill="#05F" fill-opacity="0" d="M2.007 3.2H79.49v16H2.007z"/>
        <path fill="#FFF" d="M79.482 7.281l-4.039 4.023-4.038-4.023 4.038-4.022z"/>
        <path fill="#FFF" fill-rule="nonzero" d="M66.052 12.126c-2.453-.533-1.279-.267-2.334-.504-.967-.222-1.458-.503-1.458-1.185 0-.726.7-1.333 2.201-1.333 1.472 0 2.29.652 2.29 1.23 0 .147.085.222.253.222h2.142c.109 0 .163-.07.163-.208C69.31 8.822 67.986 7 64.521 7c-3.614 0-4.744 2.119-4.744 3.481 0 1.141.416 2.49 3.182 3.126l2.38.534c1.204.266 1.71.681 1.71 1.378 0 .637-.64 1.407-2.305 1.407-1.547 0-2.484-.74-2.529-1.615 0-.148-.089-.222-.267-.222h-2.186c-.043 0-.164 0-.164.222.193 1.956 1.65 3.793 5.13 3.793 3.942 0 4.745-2.4 4.745-3.66 0-1.688-.967-2.785-3.42-3.318zM57.799 13.696c.135 0 .21-.069.223-.206v-.342c0-1.822-.52-3.392-1.547-4.489C55.449 7.563 54.065 7 52.37 7c-1.635 0-3.004.607-4.06 1.793-1.055 1.185-1.576 2.622-1.576 4.251 0 1.734.55 3.186 1.636 4.326 1.086 1.141 2.513 1.719 4.238 1.719 1.25 0 2.32-.296 3.183-.904.862-.592 1.77-1.57 2.082-2.904.01-.148-.045-.222-.164-.222h-2.141c-.121 0-.22.074-.298.222-.535 1.067-1.353 1.57-2.706 1.57a3.33 3.33 0 0 1-2.32-.918c-.625-.577-.982-1.274-1.071-2.266l8.626.03zm-8.477-2.074c.371-1.378 1.531-2.4 3.048-2.4 2.008 0 2.84 1.422 3.079 2.4h-6.127zM46.191 7h-2.29c-.106.009-.19.08-.253.213L40.428 16l-3.175-8.787C37.202 7.071 37.117 7 37 7h-2.334c-.142 0-.192.071-.15.213l4.566 11.559c.041.152.13.228.268.228h2.112c.109 0 .198-.076.268-.228l4.61-11.559c.042-.137-.007-.208-.149-.213zM30.375 7.237V8.6c0 .06-.04.053-.045.044a4.129 4.129 0 0 0-1.516-1.185C28.174 7.15 27.445 7 26.657 7c-1.472 0-2.766.593-3.837 1.748-1.07 1.156-1.606 2.608-1.606 4.311 0 1.704.535 3.156 1.606 4.311 1.071 1.156 2.365 1.749 3.837 1.749.788 0 1.502-.149 2.142-.46.119-.059.253-.118.371-.192.462-.282.848-.593 1.146-.963.014-.015.064-.04.074 0v1.2c-.01.148.064.222.223.222h1.948c.149 0 .223-.074.223-.222V7.222c0-.148-.074-.222-.223-.222h-1.963c-.149 0-.223.079-.223.237zm-.981 8.607c-.655.697-1.067.949-2.194 1.037-1.127.089-2.208-.34-2.878-1.051-.669-.697-.996-1.63-.996-2.8 0-1.156.342-2.09.996-2.8.67-.697 1.74-1.052 2.677-1.052s1.725.34 2.395 1.037c.43.46.713 1.007.877 1.674.164.667.149 1.555 0 2.252-.149.696-.446 1.259-.877 1.703zM20.247 7h-2.275c-.125 0-.205.071-.238.213L15.41 16.2l-2.642-8.987C12.729 7.071 12.65 7 12.529 7h-2.38c-.11 0-.188.071-.237.213L7.145 16.2l-2.23-8.987C4.885 7.071 4.805 7 4.677 7h-2.32c-.122 0-.171.071-.149.213l3.644 11.559c.035.152.12.228.252.228h2.29c.121 0 .205-.076.253-.228l2.657-8.421 2.623 8.42c.036.153.12.229.253.229h2.32c.11 0 .194-.076.253-.228l3.643-11.559c.032-.142-.018-.213-.149-.213z"/>
    </g>
</svg>
