<svg xmlns="http://www.w3.org/2000/svg" width="146" height="32" viewBox="0 0 146 32">
    <g fill="none" fill-rule="evenodd">
        <path fill="#05F" fill-opacity="0" d="M0 0h146v32H0z"/>
        <path fill="#000" fill-rule="nonzero" d="M112.617 25.333h-1.482V9.287h1.482v16.046zm7.695-16.046c5.108 0 8.69 1.859 8.69 8.012 0 6.175-3.582 8.034-8.69 8.034h-3.892V9.287h3.892zm-.044 1.35h-2.366v13.346h2.366c3.649 0 7.165-.752 7.165-6.684s-3.516-6.662-7.165-6.662zm11.521-1.35h10.283v1.372h-8.801v5.666h8.27v1.394h-8.27v6.242h8.8v1.372H131.79V9.287z"/>
        <path fill="#05F" fill-opacity="0" d="M2.664 4.267h102.84V25.6H2.663z"/>
        <path fill="#05F" d="M105.494 9.708l-5.36 5.364-5.36-5.364 5.36-5.363z"/>
        <path fill="#000" fill-rule="nonzero" d="M87.67 16.168c-3.257-.711-1.698-.356-3.1-.672-1.282-.296-1.934-.671-1.934-1.58 0-.968.928-1.778 2.921-1.778 1.955 0 3.04.87 3.04 1.64 0 .197.112.296.336.296h2.842c.145 0 .217-.092.217-.276 0-2.035-1.756-4.465-6.356-4.465-4.796 0-6.296 2.825-6.296 4.642 0 1.521.552 3.319 4.224 4.168l3.158.711c1.599.356 2.27.909 2.27 1.837 0 .85-.849 1.877-3.06 1.877-2.052 0-3.296-.988-3.355-2.153 0-.198-.119-.296-.355-.296H79.32c-.057 0-.217 0-.217.296.256 2.607 2.19 5.057 6.81 5.057 5.23 0 6.296-3.2 6.296-4.88 0-2.251-1.283-3.713-4.54-4.424zM76.714 18.262c.18 0 .279-.092.297-.276v-.455c0-2.43-.691-4.524-2.053-5.985-1.362-1.462-3.198-2.213-5.448-2.213-2.171 0-3.987.81-5.389 2.39-1.401 1.58-2.092 3.497-2.092 5.67 0 2.31.73 4.247 2.171 5.767 1.441 1.521 3.336 2.292 5.626 2.292 1.658 0 3.079-.395 4.224-1.205 1.145-.79 2.349-2.094 2.763-3.872.013-.197-.06-.296-.217-.296h-2.842c-.161 0-.293.099-.395.296-.71 1.423-1.796 2.094-3.593 2.094-1.164 0-2.21-.415-3.079-1.225-.829-.77-1.303-1.698-1.421-3.022l11.448.04zm-11.25-2.766c.493-1.837 2.032-3.2 4.046-3.2 2.665 0 3.77 1.897 4.086 3.2h-8.133zM61.308 9.333h-3.04c-.14.012-.253.107-.335.285l-4.274 11.715-4.214-11.715c-.068-.19-.18-.285-.335-.285h-3.1c-.187 0-.253.095-.197.285l6.06 15.41c.054.204.172.305.355.305h2.803c.145 0 .264-.101.356-.304l6.119-15.411c.056-.184-.01-.279-.198-.285zM40.316 9.65v1.817c0 .079-.052.07-.06.059-.394-.514-.927-.968-1.559-1.343a9.566 9.566 0 0 0-.454-.237c-.848-.415-1.816-.613-2.862-.613-1.954 0-3.671.79-5.092 2.331-1.421 1.54-2.132 3.477-2.132 5.748 0 2.272.71 4.208 2.132 5.748 1.42 1.541 3.138 2.331 5.092 2.331 1.046 0 1.994-.197 2.843-.612.158-.079.335-.158.493-.257.612-.375 1.125-.79 1.52-1.284.02-.02.086-.054.099 0v1.6c-.013.198.085.297.296.297h2.586c.197 0 .296-.1.296-.297V9.63c0-.198-.099-.297-.296-.297h-2.606c-.197 0-.296.106-.296.316zm-1.303 11.476c-.868.928-1.415 1.265-2.911 1.383-1.496.118-2.931-.455-3.82-1.403-.888-.928-1.322-2.173-1.322-3.733 0-1.54.454-2.785 1.322-3.733.889-.929 2.31-1.403 3.553-1.403 1.244 0 2.29.454 3.178 1.383.573.612.948 1.343 1.165 2.232.217.889.197 2.074 0 3.002-.198.929-.592 1.68-1.165 2.272zM26.874 9.333h-3.02c-.167 0-.272.095-.316.285L20.453 21.6 16.945 9.618c-.05-.19-.155-.285-.316-.285h-3.158c-.145 0-.25.095-.316.285L9.483 21.6 6.523 9.618c-.04-.19-.145-.285-.316-.285H3.128c-.161 0-.227.095-.197.285l4.836 15.41c.047.204.16.305.335.305h3.04c.16 0 .272-.101.336-.304L15.004 13.8l3.48 11.228c.049.203.16.304.336.304h3.08c.145 0 .257-.101.335-.304l4.836-15.411c.042-.19-.023-.285-.197-.285z"/>
    </g>
</svg>
